<svg id="tgit" xmlns="http://www.w3.org/2000/svg" width="156.656" height="38"><defs><style>.cls-1{fill:#fff;fill-rule:evenodd}</style></defs><path id="腾讯工蜂" class="cls-1" d="M480.008 193.766h3.7l.456-1.872H477.7c.168-.36.312-.744.456-1.1h5.256l.456-1.921H482.1a25.946 25.946 0 0 0 1.224-2.88H480.8a23.134 23.134 0 0 1-1.128 2.88h-.96a19.394 19.394 0 0 0 .456-3.288h-2.544a17.686 17.686 0 0 1-.48 3.288h-.816c-.216-1.032-.408-1.92-.576-2.88h-2.521l.576 2.88h-1.656l-.384 1.921h4.8a10.761 10.761 0 0 1-.5 1.1h-4.489l-.384 1.872h3.6a9.654 9.654 0 0 1-4.008 2.112l-.5 2.4a11.223 11.223 0 0 0 2.3-.744l-.744 3.913h8.258c.336 0 .408.12.336.456a62.391 62.391 0 0 1-.672 3.312H474.1l.433 1.944h6.5c.408-2.136.84-4.632 1.128-6.457.168-1.008-.408-1.152-1.248-1.152h-1.176l.552-2.568a8.677 8.677 0 0 0 3.048 1.3l.624-2.112c-1.261-.316-3.329-1.276-3.953-2.404zm-10.825-7.561h-4.56c-.672 4.153-1.44 8.665-2.377 13.3-.552 2.761-1.2 5.3-1.92 7.657h2.4a96.443 96.443 0 0 0 1.824-7.513h1.632l-1.416 7.513h2.448L470.7 187.6c.187-1.179-.293-1.395-1.517-1.395zm-.96 2.5l-.6 3.193h-1.656l.624-3.649h1.2c.36-.004.509.068.432.451zm9.289 5.065a7.526 7.526 0 0 0 1.128 1.752h-3.768a12.079 12.079 0 0 0 1.752-1.752h.888zm-10.969 3.912h-1.632c.24-1.248.48-2.568.7-3.84h1.656zm7.152 1.872l.288-1.44-1.128-.768h4.489c.336 0 .408.12.336.456l-.38 1.748h-3.6zm4.3 2.857h-9.049l.336 1.872h8.281zm15.02-11.811l-1.008-5.041h-2.5l.893 5.041h2.616zm12.721-4.441h-11.449l.48 2.112h8.857c.552 0 .816.072.7.7-.288 1.489-.6 3.241-.936 5.185h-3.84l.6-3.408-2.329-1.729-.919 5.131h-3.24l-.408 2.04h3.288l-1.92 10.969h2.64l1.921-10.969h3.84c-.576 3.168-1.2 6.817-1.92 10.969h5.184l.864-2.232h-2.976c.984-5.449 2.064-11.641 3.048-17.138.219-1.2-.021-1.632-1.485-1.632zm-13.489 5.713h-5.136l-.36 2.112h2.472l-2.423 13.079a59.441 59.441 0 0 0 6.216-4.3l.576-3.121c-1.056.84-2.184 1.753-3.168 2.473zm38.569-2.521l.408-2.424h-18.193l-.384 2.424h7.9l-1.992 13.97h-8.809l-.336 2.424h20.618l.36-2.424h-8.929l1.945-13.97h7.416zm8.759 10.705c.072.96.144 1.969.24 3l-1.224.288.576-4.273h2.976l.456-3.552h3.432c1.105-.48 2.689-1.248 3.745-1.848.912.7 1.824 1.32 2.592 1.848h4.3a65.914 65.914 0 0 1-4.92-3.048 22.517 22.517 0 0 0 3.624-2.808 2.209 2.209 0 0 0 .72-1.873.8.8 0 0 0-.912-.72h-5.112a11.431 11.431 0 0 0 .792-1.512h-2.688a10.146 10.146 0 0 1-3.961 4.249l-.7 2.688a12.426 12.426 0 0 0 2.833-1.584c.576.5 1.2 1.008 1.728 1.44a53.938 53.938 0 0 1-5.4 2.664l.6-4.608c.144-1.105-.144-1.417-1.1-1.417h-1.608l.5-3.432h-2.256l-.5 3.432h-2.736l-1.472 10.08h2.809l-.648 4.729c-.96.192-1.921.36-2.905.528l-.336 2.232c2.641-.576 4.8-1.224 6.961-1.848l.144 1.632h2.064a86.697 86.697 0 0 1-.72-6.289h-1.9zm9.073-11.185h3.96c.192 0 .264.072.12.192a17.6 17.6 0 0 1-2.712 2.089c-.552-.384-1.08-.84-1.536-1.224h-.912a15.015 15.015 0 0 0 1.08-1.059zm-11.4 2.041h.864l-.84 6.264h-.864zm3.936.168l-.816 6.1h-1.008l.864-6.264h.792c.095-.006.191.018.167.162zm13.393 7.344l.24-1.92h-4.344l.216-1.632h-2.569l-.24 1.632h-4.345l-.24 1.92h4.321l-.168 1.128h-3.769l-.264 1.873h3.769l-.168 1.176h-4.753l-.24 1.968h4.729l-.384 2.616h2.616l.36-2.616h5.064l.24-1.968h-5.04l.168-1.176h3.96l.264-1.875h-3.96l.168-1.128h4.368z" transform="translate(-400 -177)"/><g id="组_50" data-name="组 50"><path id="形状_798" data-name="形状 798" class="cls-1" d="M404.19 187.1h33.646l-1.794-3.1h-30.088zm33.71 17.86h-33.852l1.793 3.1h30.308zM432.308 177h-3.231v3.167l4.746-.064-1.838-3.1M442 197.963h-8.985v3.1h7.227zm-28.44 3.1h17.271v-3.1h-17.262v3.1h-.009zM409.838 215h3.085v-3.167l-4.907.064zm-9.693-20.9h18.206V191h-16.432z" transform="translate(-400 -177)"/><path id="形状_798_拷贝" data-name="形状 798 拷贝" d="M408.171 180.1l17.675.063V177h-15.911zm2.891 17.859H400l1.822 3.1h9.24v-3.1m22.887 13.941l-17.8-.064V215h16.034l1.758-3.1m6.08-20.9h-19.153v3.1h21l-1.823-3.1" transform="translate(-400 -177)" opacity=".6" fill="#fff" fill-rule="evenodd"/></g></svg>
