<svg id="图层_1_复制" data-name="图层 1 复制" xmlns="http://www.w3.org/2000/svg" viewBox="0 0 285 88.2"><defs><style>.cls-1{fill:#5270a4}</style></defs><path class="cls-1" d="M19.35 7.2h38.42V0H23.42zM10.1 23.45h78.15l-4.17-7.2h-69.9zm78.32 41.43H9.76l4.16 7.2h70.41z"/><path d="M74.69 0H63.08v7.2h15.84z"/><path class="cls-1" d="M97.92 48.69H77v7.2h16.84z"/><path d="M4.58 55.89H26v-7.2H.35z"/><path class="cls-1" d="M31.85 48.69H72v7.2H31.85z"/><path d="M79.21 81h-48v7.2h43.92z"/><path class="cls-1" d="M23.21 88.2h2.6V81H19zM.73 39.7H43v-7.2H4.81z"/><path d="M93.42 32.5H48.83v7.2h48.78z"/><path class="cls-1" d="M169.25 19.07l-6.73 48.45h30.9l-1.25 8.4h-71.41l1.17-8.4h30.49l7-48.45H132l1.33-8.4h63l-1.41 8.4zm62.63 37.09c.54 7.24 1.41 14.89 2.54 21.84h-7.15l-.5-5.66c-7.49 2.16-15 4.41-24.12 6.4l1.13-7.74c3.41-.58 6.74-1.16 10.06-1.83l2.25-16.39h-9.67l5-34.91h9.48l1.72-11.94h7.8l-1.7 11.89h5.57c3.33 0 4.33 1.08 3.83 4.91l-2.08 16a185.53 185.53 0 0018.71-9.23c-1.83-1.5-4-3.24-6-5a43 43 0 01-9.82 5.5l2.49-9.35a35.08 35.08 0 0013.7-14.73h9.3a39 39 0 01-2.75 5.24h17.75c2 0 3.16 1.16 3.16 2.5 0 2.74-.33 4.33-2.5 6.49a78 78 0 01-12.56 9.73c4.82 3.33 11 7.15 17 10.56h-14.9c-2.66-1.83-5.82-4-9-6.4-3.66 2.08-9.15 4.74-13 6.4h-11.83l-1.58 12.31H223.9l-2 14.8 4.24-1c-.33-3.58-.58-7.07-.83-10.4zm-17.55-10h3l2.91-21.64h-3zm16-21.71h-2.74l-3 21.71h3.49L230.91 25c.06-.51-.28-.51-.61-.51zm31.86 26l-.58 3.91h13.72l-.91 6.54h-13.76l-.58 4.1h17.47l-.83 6.82h-17.56l-1.25 9.07h-9.07l1.33-9.07h-16.38l.83-6.82h16.47l.58-4.08h-13.05l.91-6.49h13.06l.58-3.91h-15l.83-6.65h15.09l.83-5.66h8.9l-.75 5.66h15.05l-.83 6.67zM253 21h3.16c1.58 1.33 3.41 2.91 5.32 4.24a61.08 61.08 0 009.4-7.24c.5-.42.25-.67-.42-.67h-13.71a50.49 50.49 0 01-3.75 3.72z"/></svg>
