<svg xmlns="http://www.w3.org/2000/svg" width="163.8" height="99.3" fill='#fff'><path class="st0" d="M65.1 4.2h22.4V0h-20l-2.4 4.2zm-5.4 9.4h45.7L103 9.4H62.1l-2.4 4.2zm45.7 23.9h-46l2.4 4.2H103l2.4-4.2zM97.4 0h-6.8v4.2h9.3L97.4 0zM111 28.1H98.8v4.2h9.8l2.4-4.2zm-54.5 4.2H69v-4.2H54l2.5 4.2zm15.9-4.2h23.4v4.2H72.4v-4.2zm27.7 18.7H72V51h25.7l2.4-4.2zM67.3 51h1.5v-4.2h-4l2.5 4.2zM54.2 22.9h24.7v-4.2H56.6l-2.4 4.2zm54.1-4.1h-26V23h28.5l-2.5-4.2z"/><path class="st0" d="M42.5 78.6l-3.7 20.7h-2.6l1.5-7.9H36c-.6 2.9-1.3 5.6-1.9 7.9h-2.5c.8-2.5 1.4-5.2 2-8.1 1-4.9 1.8-9.7 2.5-14.1h4.8c1.3.1 1.8.3 1.6 1.5zm-3.6 6.6h-1.8c-.2 1.3-.5 2.7-.7 4.1h1.7l.8-4.1zm.5-5.9h-1.3l-.7 3.9h1.8l.6-3.4c.2-.4 0-.5-.4-.5zm10.4 17H41l-.4-2h9.6l-.4 2zm6.7-8.6l-.7 2.2c-1.2-.3-2.3-.7-3.2-1.4l-.6 2.7h1.2c.9 0 1.5.2 1.3 1.2-.3 1.9-.8 4.6-1.2 6.8h-6.9l-.5-2.1H51c.3-1.1.5-2.4.7-3.5.1-.4 0-.5-.4-.5h-8.7l.8-4.1c-.8.4-1.6.6-2.4.8l.5-2.5c1.3-.3 3.3-1.2 4.2-2.2H42l.4-2h4.7c.2-.4.4-.8.5-1.2h-5.1l.4-2h1.8l-.6-3h2.7l.6 3h.9c.2-.9.5-2.3.5-3.5h2.7c-.1 1.5-.3 2.6-.5 3.6h1c.5-.9.9-2 1.2-3h2.7c-.4 1-.9 2-1.3 3h1.9l-.5 2h-5.6c-.2.4-.3.8-.5 1.2h6.8l-.5 2h-3.9c.7 1.1 2.9 2.2 4.2 2.5zm-7 3.6l.4-1.9c.1-.4 0-.5-.4-.5h-4.7l1.2.8-.3 1.5h3.8zm-.7-6.2c-.5.6-1.1 1.3-1.9 1.9h4c-.5-.6-.9-1.2-1.2-1.9h-.9zM63.4 94c1-.8 2.2-1.7 3.4-2.6l-.6 3.3c-1.8 1.5-4.2 3.1-6.6 4.5l2.6-13.8h-2.6l.4-2.2h5.4l-2 10.8zm-.1-12.2l-.9-5.3H65l1.1 5.3h-2.8zm17.8-3c-1 5.8-2.2 12.4-3.2 18.1H81l-.9 2.4h-5.5c.8-4.4 1.4-8.3 2-11.6h-4.1l-2 11.6h-2.8l2-11.6h-3.5l.4-2.2H70l1-5.4 2.5 1.8-.5 3.7h4.1c.4-2.1.7-3.9 1-5.5.1-.7-.2-.7-.7-.7H68l-.5-2.2h12.1c1.5-.1 1.8.4 1.5 1.6zM98.3 80.5l-2.1 14.8h9.4l-.4 2.6H83.5l.4-2.6h9.3l2.1-14.8h-8.4l.4-2.6h19.2l-.4 2.6h-7.8zM117.4 91.8c.2 2.2.4 4.5.8 6.7H116l-.2-1.7c-2.3.7-4.6 1.3-7.4 2l.4-2.4c1-.2 2.1-.4 3.1-.6l.7-5h-3l1.5-10.7h2.9l.5-3.6h2.4l-.5 3.6h1.7c1 0 1.3.3 1.2 1.5l-.6 4.9c2.1-.9 4-1.8 5.7-2.8l-1.8-1.5c-1 .7-2 1.3-3 1.7l.7-2.8c2-1.2 3.3-2.7 4.2-4.5h2.8c-.2.5-.5 1.1-.8 1.6h5.4c.6 0 1 .4 1 .8 0 .8-.1 1.3-.8 2-.7.7-2.3 2.1-3.8 3 1.5 1 3.4 2.2 5.2 3.2H129c-.8-.6-1.8-1.2-2.7-2-1.1.6-2.8 1.4-4 2h-3.6l-.5 3.8h-3.1l-.6 4.5 1.3-.3c-.1-1.1-.2-2.2-.3-3.2h1.9zm-5.4-3h.9l.9-6.6h-.9l-.9 6.6zm4.9-6.7h-.8l-.9 6.6h1.1l.9-6.4c-.1-.1-.2-.2-.3-.2zm9.7 8l-.2 1.2h4.2l-.3 2h-4.2l-.2 1.2h5.3l-.3 2.1h-5.4l-.4 2.8h-2.8l.4-2.8h-5l.3-2.1h5l.2-1.2h-4l.3-2h4l.2-1.2h-4.6l.3-2h4.6l.3-1.7h2.7l-.2 1.7h4.6l-.3 2h-4.5zm-2.8-9h1c.5.4 1 .9 1.6 1.3 1.2-.8 2.2-1.6 2.9-2.2.2-.1.1-.2-.1-.2H125c-.4.4-.8.7-1.2 1.1z"/></svg>
